<?xml version="1.0" encoding="UTF-8"?>
<!-- Generated by Pixelmator Pro 3.6.18 -->
<svg width="1024" height="1024" viewBox="0 0 1024 1024" xmlns="http://www.w3.org/2000/svg">
    <g id="Group">
        <linearGradient id="linearGradient1" x1="517.046499" y1="960.372966" x2="517.046499" y2="62.342331" gradientUnits="userSpaceOnUse">
            <stop offset="0" stop-color="#0061c4" stop-opacity="1"/>
            <stop offset="1" stop-color="#24aaff" stop-opacity="1"/>
        </linearGradient>
        <path id="Rounded-Rectangle" fill="url(#linearGradient1)" fill-rule="evenodd" stroke="none" d="M 86.225761 864.838013 C 62 821.579834 62 763.886536 62 648.5 L 62 375.5 C 62 260.113464 62 202.420166 86.225761 159.161987 C 103.347168 128.589478 128.589493 103.347168 159.161957 86.225769 C 202.420166 62 260.113464 62 375.5 62 L 648.5 62 C 763.886536 62 821.579834 62 864.838013 86.225769 C 895.410522 103.347168 920.652832 128.589539 937.774231 159.161987 C 962 202.420166 962 260.113464 962 375.5 L 962 648.5 C 962 763.886536 962 821.579834 937.774231 864.838013 C 920.652832 895.410522 895.410461 920.652832 864.838013 937.774231 C 821.579834 962 763.886536 962 648.5 962 L 375.5 962 C 260.113464 962 202.420166 962 159.161957 937.774231 C 128.589493 920.652832 103.347168 895.410522 86.225761 864.838013 Z M 92 648.5 L 92 375.5 C 92 297.215668 92.448364 270.788574 94.911674 242.924713 C 97.705658 211.320328 103.024796 190.562393 112.400635 173.820633 C 126.818665 148.075363 148.075348 126.81868 173.820587 112.40065 C 190.562378 103.024796 211.320328 97.705658 242.924713 94.911674 C 270.788574 92.448364 297.215668 92 375.5 92 L 648.5 92 C 726.784363 92 753.211426 92.448364 781.075317 94.911674 C 812.679688 97.705658 833.437622 103.024796 850.179382 112.400642 C 875.924622 126.818649 897.181274 148.075363 911.599365 173.820633 C 920.97522 190.562393 926.294312 211.320343 929.088318 242.924713 C 931.551636 270.788574 932 297.215668 932 375.5 L 932 648.5 C 932 726.784363 931.551636 753.211426 929.088318 781.075317 C 926.294312 812.679688 920.97522 833.437622 911.599365 850.179382 C 897.181335 875.924622 875.924622 897.181274 850.179382 911.599365 C 833.437622 920.97522 812.679688 926.294312 781.075317 929.088318 C 753.211426 931.551636 726.784363 932 648.5 932 L 375.5 932 C 297.215668 932 270.788574 931.551636 242.924713 929.088318 C 211.320328 926.294312 190.562378 920.97522 173.820602 911.599365 C 148.075348 897.181335 126.818665 875.924622 112.40065 850.179382 C 103.024796 833.437622 97.705658 812.679688 94.911674 781.075317 C 92.448364 753.211426 92 726.784363 92 648.5 Z"/>
    </g>
</svg>
