<?xml version="1.0" encoding="UTF-8"?>
<!-- Generated by Pixelmator Pro 3.6.18 -->
<svg width="1024" height="1024" viewBox="0 0 1024 1024" xmlns="http://www.w3.org/2000/svg">
    <g id="Group">
        <filter id="filter1" x="0" y="0" width="1024" height="1024" filterUnits="userSpaceOnUse" primitiveUnits="userSpaceOnUse" color-interpolation-filters="sRGB">
            <feFlood flood-color="#0048cb" flood-opacity="1"/>
            <feComposite in2="SourceGraphic" operator="out"/>
            <feGaussianBlur stdDeviation="44"/>
            <feOffset dx="-15.556349" dy="-15.556349"/>
            <feComposite in2="SourceGraphic" operator="atop"/>
        </filter>
        <path id="Rounded-Rectangle-copy-6" fill="#00aaff" fill-rule="evenodd" stroke="none" filter="url(#filter1)" d="M 236 762 C 222.745163 762 212 751.254822 212 738 C 212 724.745178 222.745163 714 236 714 L 287.232758 714 C 287.078735 712.354004 287 710.686218 287 709 L 287 371 C 287 341.728882 310.728912 318 340 318 C 369.271088 318 393 341.728882 393 371 L 393 709 C 393 710.686218 392.921265 712.354004 392.767242 714 L 459.232758 714 C 459.078735 712.354004 459 710.686218 459 709 L 459 435 C 459 405.728882 482.728912 382 512 382 C 541.271118 382 565 405.728882 565 435 L 565 709 C 565 710.686218 564.921204 712.354004 564.767212 714 L 631.232788 714 C 631.078796 712.354004 631 710.686218 631 709 L 631 315 C 631 285.728882 654.728882 262 684 262 C 713.271118 262 737 285.728882 737 315 L 737 709 C 737 710.686218 736.921204 712.354004 736.767212 714 L 788 714 C 801.254822 714 812 724.745178 812 738 C 812 751.254822 801.254822 762 788 762 L 236 762 Z"/>
    </g>
</svg>
